<svg width="118" height="28" viewBox="0 0 118 28" fill="none" xmlns="http://www.w3.org/2000/svg">
<path d="M22.4638 0.096036C25.0878 0.096036 27.1358 0.864037 28.6078 2.40004C30.1118 3.90404 30.8638 6.00004 30.8638 8.68804C30.8638 9.58404 30.7678 10.544 30.5758 11.568L27.7918 27.264H18.3838L20.9278 12.816C21.0238 12.336 21.0718 11.904 21.0718 11.52C21.0718 10.368 20.7358 9.47204 20.0638 8.83204C19.4238 8.19204 18.5118 7.87204 17.3278 7.87204C15.9838 7.87204 14.8478 8.28804 13.9198 9.12004C12.9918 9.95204 12.3678 11.104 12.0478 12.576L9.45577 27.264H-0.000234358L4.79977 0.336036H14.2078L13.5358 4.17604C14.5918 2.96004 15.8878 1.98404 17.4238 1.24804C18.9598 0.480036 20.6398 0.096036 22.4638 0.096036ZM44.666 27.6C42.426 27.6 40.426 27.264 38.666 26.592C36.906 25.92 35.53 24.976 34.538 23.76C33.546 22.512 33.05 21.088 33.05 19.488C33.05 19.2 33.082 18.768 33.146 18.192H42.218C42.186 19.088 42.458 19.776 43.034 20.256C43.61 20.736 44.41 20.976 45.434 20.976C46.234 20.976 46.89 20.816 47.402 20.496C47.946 20.176 48.218 19.76 48.218 19.248C48.218 18.64 47.882 18.176 47.21 17.856C46.538 17.504 45.418 17.072 43.85 16.56C42.026 15.984 40.522 15.424 39.338 14.88C38.154 14.336 37.114 13.536 36.218 12.48C35.354 11.424 34.922 10.064 34.922 8.40004C34.922 6.80004 35.386 5.36004 36.314 4.08004C37.274 2.80004 38.618 1.80804 40.346 1.10404C42.074 0.368037 44.074 3.71933e-05 46.346 3.71933e-05C48.778 3.71933e-05 50.874 0.416037 52.634 1.24804C54.426 2.04804 55.754 3.16804 56.618 4.60804C57.514 6.04804 57.914 7.64804 57.818 9.40804H49.37C49.402 8.54404 49.146 7.87204 48.602 7.39204C48.058 6.88004 47.274 6.62404 46.25 6.62404C45.514 6.62404 44.906 6.78404 44.426 7.10404C43.946 7.42404 43.706 7.84004 43.706 8.35204C43.706 8.96004 44.042 9.44004 44.714 9.79204C45.418 10.144 46.586 10.592 48.218 11.136C50.01 11.712 51.498 12.288 52.682 12.864C53.898 13.408 54.938 14.192 55.802 15.216C56.666 16.208 57.098 17.488 57.098 19.056C57.098 21.712 55.946 23.808 53.642 25.344C51.338 26.848 48.346 27.6 44.666 27.6ZM61.0513 13.776C61.5633 10.96 62.5713 8.52804 64.0753 6.48004C65.6113 4.40004 67.4993 2.80004 69.7393 1.68004C72.0113 0.560037 74.4753 3.71933e-05 77.1313 3.71933e-05C80.5553 3.71933e-05 83.2753 0.944037 85.2913 2.83204C87.3073 4.68804 88.3633 7.29604 88.4593 10.656H78.4273C78.1713 8.89604 77.1953 8.01604 75.4993 8.01604C74.3153 8.01604 73.2913 8.51204 72.4273 9.50404C71.5633 10.464 70.9713 11.888 70.6513 13.776C70.5233 14.416 70.4593 15.056 70.4593 15.696C70.4593 16.976 70.7313 17.952 71.2753 18.624C71.8193 19.264 72.5553 19.584 73.4833 19.584C75.2113 19.584 76.4753 18.704 77.2753 16.944H87.3073C86.0593 20.272 84.0913 22.88 81.4033 24.768C78.7473 26.656 75.6913 27.6 72.2353 27.6C68.7153 27.6 65.9153 26.64 63.8353 24.72C61.7873 22.8 60.7633 20.16 60.7633 16.8C60.7633 15.84 60.8593 14.832 61.0513 13.776ZM90.2075 13.776C90.7195 10.96 91.7275 8.52804 93.2315 6.48004C94.7675 4.40004 96.6555 2.80004 98.8955 1.68004C101.168 0.560037 103.632 3.71933e-05 106.288 3.71933e-05C109.712 3.71933e-05 112.432 0.944037 114.448 2.83204C116.464 4.68804 117.52 7.29604 117.616 10.656H107.584C107.328 8.89604 106.352 8.01604 104.656 8.01604C103.472 8.01604 102.448 8.51204 101.584 9.50404C100.72 10.464 100.128 11.888 99.8075 13.776C99.6795 14.416 99.6155 15.056 99.6155 15.696C99.6155 16.976 99.8875 17.952 100.432 18.624C100.976 19.264 101.712 19.584 102.64 19.584C104.368 19.584 105.632 18.704 106.432 16.944H116.464C115.216 20.272 113.248 22.88 110.56 24.768C107.904 26.656 104.848 27.6 101.392 27.6C97.8715 27.6 95.0715 26.64 92.9915 24.72C90.9435 22.8 89.9195 20.16 89.9195 16.8C89.9195 15.84 90.0155 14.832 90.2075 13.776Z" fill="#004780"/>
</svg>
