<svg width="26" height="26" viewBox="0 0 26 26" fill="none" xmlns="http://www.w3.org/2000/svg">
<path d="M8.00615 1.25061C7.61115 0.305608 6.58115 -0.194392 5.60115 0.0706083L5.32615 0.145608C2.09615 1.02561 -0.663851 4.15561 0.141149 7.96561C1.99615 16.7156 8.88115 23.6006 17.6311 25.4556C21.4461 26.2656 24.5711 23.5006 25.4511 20.2706L25.5261 19.9956C25.7961 19.0106 25.2911 17.9806 24.3511 17.5906L19.4861 15.5656C18.6611 15.2206 17.7061 15.4606 17.1361 16.1556L15.2061 18.5156C11.6911 16.7706 8.86115 13.8506 7.23615 10.2656L9.44615 8.46561C10.1411 7.90061 10.3761 6.94561 10.0361 6.11561L8.00615 1.25061Z" fill="white"/>
</svg>
