<svg width="26" height="20" viewBox="0 0 26 20" fill="none" xmlns="http://www.w3.org/2000/svg">
<path d="M3.07 0C1.375 0 0 1.375 0 3.07C0 3.115 -7.63685e-08 3.155 0.00499992 3.2H0V16C0 17.765 1.435 19.2 3.2 19.2H22.4C24.165 19.2 25.6 17.765 25.6 16V3.2H25.595C25.595 3.155 25.6 3.115 25.6 3.07C25.6 1.375 24.225 0 22.53 0H3.07ZM23.2 6.415V16C23.2 16.44 22.84 16.8 22.4 16.8H3.2C2.76 16.8 2.4 16.44 2.4 16V6.415L10.14 12.285C11.71 13.48 13.885 13.48 15.46 12.285L23.2 6.415ZM2.4 3.07C2.4 2.7 2.7 2.4 3.07 2.4H22.53C22.9 2.4 23.2 2.7 23.2 3.07C23.2 3.28 23.1 3.48 22.935 3.605L14.01 10.375C13.295 10.915 12.305 10.915 11.59 10.375L2.665 3.605C2.5 3.48 2.4 3.28 2.4 3.07Z" fill="white"/>
</svg>
