<svg width="17" height="13" viewBox="0 0 17 13" fill="none" xmlns="http://www.w3.org/2000/svg">
<path d="M14.6032 0.329901C14.7056 0.22545 14.8278 0.142472 14.9626 0.085825C15.0975 0.0291778 15.2422 0 15.3885 0C15.5347 0 15.6795 0.0291778 15.8144 0.085825C15.9492 0.142472 16.0714 0.22545 16.1737 0.329901C16.6027 0.763401 16.6087 1.4639 16.1887 1.9049L7.31924 12.3899C7.21854 12.5005 7.09633 12.5894 6.9601 12.6511C6.82388 12.7128 6.67648 12.7461 6.52695 12.7489C6.37741 12.7517 6.22888 12.724 6.09042 12.6674C5.95197 12.6108 5.82652 12.5266 5.72174 12.4199L0.324738 6.9509C0.116594 6.73863 0 6.45319 0 6.1559C0 5.85861 0.116594 5.57317 0.324738 5.3609C0.427107 5.25645 0.549286 5.17347 0.684121 5.11682C0.818956 5.06018 0.963737 5.031 1.10999 5.031C1.25624 5.031 1.40102 5.06018 1.53586 5.11682C1.67069 5.17347 1.79287 5.25645 1.89524 5.3609L6.47324 10.0004L14.5732 0.362901C14.5826 0.351309 14.5926 0.340289 14.6032 0.329901Z" fill="white"/>
</svg>
