<svg width="96" height="98" viewBox="0 0 96 98" fill="none" xmlns="http://www.w3.org/2000/svg">
<g clip-path="url(#clip0_722_1413)">
<path d="M60.6893 17.2042C60.8138 17.2332 60.9381 17.2622 61.0664 17.2922C61.6142 17.4208 62.1619 17.5503 62.7075 17.6881C63.3451 17.8485 63.9743 17.986 64.6246 18.0842C65.2493 18.1837 65.791 18.3401 66.364 18.6052C66.4493 18.6441 66.5348 18.6831 66.6227 18.7232C67.8954 19.3245 68.8016 20.1105 69.6858 21.1897C70.1065 21.6997 70.5492 22.1454 71.047 22.5798C72.535 23.906 73.2902 25.5397 73.9119 27.4045C73.9287 27.7621 73.9385 28.1167 73.9419 28.4744C73.9431 28.5817 73.9443 28.6892 73.9456 28.7998C73.9756 32.1169 73.8257 35.3093 72.7785 38.4863C72.7461 38.5876 72.7139 38.6886 72.6807 38.7929C71.6255 42.0779 70.0049 44.3363 67.6154 46.7977C67.5014 46.9155 67.3873 47.0334 67.2697 47.1548C66.6956 47.7379 66.1016 48.287 65.4747 48.8126C65.4067 48.8704 65.3387 48.9281 65.2686 48.9878C64.0152 50.05 62.7123 50.9664 61.3191 51.8349C57.8197 54.0236 55.7558 57.2501 53.7634 60.7759C53.6752 60.9312 53.6752 60.9312 53.5851 61.0896C53.2712 61.6433 52.9622 62.1996 52.6582 62.7591C52.5529 62.9529 52.4469 63.1462 52.3405 63.3395C48.3945 70.522 46.4545 77.9881 47.4135 86.1442C47.425 86.2429 47.4367 86.3417 47.4486 86.4433C47.4705 86.6272 47.4929 86.8112 47.5161 86.9952C47.6876 88.4128 47.6876 88.4128 47.454 88.8897C46.9474 89.4718 46.9474 89.4718 46.4594 89.543C45.9143 89.2817 45.6039 88.8875 45.3261 88.3546C45.2099 87.7995 45.1831 87.2683 45.1799 86.7022C45.1792 86.6155 45.1787 86.5291 45.178 86.4399C45.1762 86.1542 45.1753 85.8687 45.1746 85.5831C45.1743 85.484 45.1739 85.3849 45.1736 85.2827C45.1716 84.7554 45.1706 84.2279 45.1699 83.7005C45.1694 83.2717 45.1677 82.8427 45.1648 82.4139C45.1415 78.8903 45.1923 75.3915 46.2076 71.9837C46.2478 71.8487 46.2878 71.7136 46.329 71.5746C46.7602 70.2036 47.3501 68.9213 47.9627 67.6234C48.0699 67.3945 48.1771 67.1656 48.2843 66.9367C48.5492 66.3712 48.8157 65.8066 49.083 65.2422C49.2187 64.9555 49.354 64.6686 49.4892 64.3816C51.1836 60.7888 53.0029 57.3174 55.5263 54.2276C55.585 54.1555 55.6437 54.0833 55.7043 54.009C57.1733 52.2141 58.8416 50.8479 60.7592 49.5603C62.0957 48.6607 63.3676 47.718 64.5931 46.6717C64.7064 46.5752 64.8195 46.4786 64.936 46.3791C65.2478 46.1049 65.5514 45.8243 65.8524 45.5384C65.9196 45.4747 65.9868 45.4109 66.056 45.3453C68.0577 43.4321 69.3408 41.5633 70.2678 38.9272C70.3222 38.7732 70.3767 38.6193 70.4326 38.4606C71.7083 34.7846 72.9707 29.9687 71.2753 26.2633C70.742 25.2647 70.021 24.4506 69.2525 23.6266C69.1748 23.5402 69.0969 23.4535 69.0169 23.3645C66.615 20.8068 63.533 19.7711 60.134 19.4301C59.5807 19.3711 59.0822 19.2544 58.5486 19.0932C56.6227 18.7143 54.5653 18.376 52.687 19.0844C51.4557 19.466 50.2155 19.5023 48.9378 19.5149C45.5432 19.5549 42.3053 20.1931 39.0021 20.9338C38.8495 20.9681 38.6967 21.0023 38.5393 21.0376C38.2443 21.1037 37.9495 21.1705 37.6547 21.238C36.5387 21.4906 36.5387 21.4906 35.9878 21.5232C35.4187 21.6273 35.066 21.8458 34.5839 22.1546C33.9867 22.5288 33.3529 22.8347 32.7253 23.1544C28.9715 25.0905 25.3881 27.3923 22.6275 30.6472C22.1112 31.2537 21.5389 31.8052 20.9706 32.3624C16.3126 36.9573 14.2225 43.0781 12.3329 49.1904C12.2674 49.3866 12.2674 49.3866 12.2006 49.5866C12.0625 50.1468 12.0447 50.6497 12.0464 51.2238C12.0458 51.3359 12.0451 51.4481 12.0445 51.5638C12.0427 51.9339 12.0429 52.304 12.0431 52.6741C12.0426 52.9351 12.0421 53.1962 12.0415 53.4573C12.0406 54.0058 12.0406 54.5543 12.0413 55.1029C12.0418 55.6582 12.041 56.2137 12.0387 56.7689C12.0167 61.3042 12.0167 61.3042 12.4588 65.8131C12.4734 65.9109 12.488 66.0087 12.503 66.1095C12.5834 66.6264 12.6832 67.1366 12.7972 67.6469C12.8459 67.8714 12.8459 67.8714 12.8956 68.1003C13.5826 71.1816 14.5949 74.1402 15.657 77.1075C15.8444 77.6316 16.0297 78.1563 16.211 78.6826C16.6261 79.8864 17.0582 81.0711 17.5668 82.2391C17.6303 82.3856 17.6937 82.5323 17.759 82.6833C19.9846 87.8104 19.9846 87.8104 23.2651 92.2899C23.991 93.0722 24.6216 93.9164 25.2477 94.7797C25.4219 95.0186 25.5993 95.2548 25.7772 95.4908C25.8818 95.6331 25.9863 95.7757 26.0905 95.9182C26.2279 96.1036 26.2279 96.1036 26.368 96.2926C26.6052 96.7472 26.6176 97.041 26.5628 97.5474C26.311 97.9252 26.311 97.9252 26.065 97.9842C25.9695 97.9856 25.874 97.9868 25.7757 97.9881C25.6815 97.992 25.5874 97.9959 25.4904 98C24.7222 97.8164 24.2302 97.0947 23.7766 96.4927C23.6552 96.3347 23.5337 96.1765 23.4121 96.0186C23.3502 95.9377 23.2882 95.857 23.2244 95.7738C23.0439 95.5417 22.8597 95.3133 22.6733 95.0859C18.4047 89.8778 15.7074 83.9483 13.4662 77.6506C13.4316 77.5538 13.3971 77.4569 13.3614 77.3572C12.8166 75.8172 12.377 74.2484 11.9484 72.6726C11.8243 72.2177 11.6979 71.7635 11.5714 71.3092C11.0125 69.2819 10.5429 67.2571 10.1921 65.1835C10.1673 65.0462 10.1673 65.0462 10.142 64.9062C9.81431 63.0711 9.7216 60.948 10.003 59.1059C10.0643 58.6487 10.0843 58.2128 10.088 57.7518C10.0889 57.6684 10.0897 57.5848 10.0906 57.4989C10.0923 57.3191 10.0938 57.1392 10.0951 56.9595C10.0972 56.6733 10.1001 56.3871 10.1033 56.1009C10.1121 55.2878 10.1197 54.4746 10.1262 53.6613C10.1302 53.1623 10.1355 52.6631 10.1413 52.164C10.1433 51.9756 10.1449 51.7872 10.146 51.5987C10.1528 50.4403 10.2301 49.3235 10.4439 48.1829C10.4615 48.0881 10.4791 47.9934 10.4971 47.8955C10.9469 45.6136 11.8821 43.4988 12.7658 41.3592C12.8051 41.2634 12.8445 41.1676 12.885 41.0689C13.994 38.3768 15.244 35.8197 17.1182 33.5752C17.1779 33.5031 17.2376 33.431 17.2992 33.3568C18.6372 31.7493 20.0686 30.232 21.5557 28.7623C21.9213 28.3998 22.2732 28.0356 22.6039 27.6407C24.4844 25.4481 26.9816 23.9181 29.4591 22.4932C29.5797 22.4237 29.7001 22.3542 29.8243 22.2824C30.5594 21.8591 31.2975 21.4415 32.0399 21.031C32.2311 20.925 32.4219 20.8185 32.612 20.7109C34.5892 19.5952 36.7402 19.1943 38.9623 18.8667C40.0301 18.7092 41.0519 18.5015 42.0835 18.1802C43.2409 17.8267 44.3279 17.7714 45.5334 17.7585C46.994 17.7322 48.3777 17.4557 49.8011 17.1454C53.0777 16.4368 57.4202 16.4228 60.6893 17.2042Z" fill="#7B458F"/>
<path d="M49.9428 12.2141C50.0705 12.2132 50.1983 12.2123 50.3299 12.2114C50.7364 12.2093 51.1428 12.2084 51.5494 12.2081C51.6888 12.208 51.8282 12.2078 51.9719 12.2076C53.9477 12.2082 55.8775 12.2672 57.834 12.5656C58.1807 12.617 58.5274 12.6597 58.8756 12.6998C63.3732 13.2308 67.9572 14.4174 71.6512 17.1482C71.753 17.2223 71.8549 17.2962 71.9599 17.3725C73.3351 18.4191 74.6598 19.6894 75.5535 21.1758C75.5967 21.2455 75.64 21.315 75.6844 21.3867C76.9419 23.4249 77.6727 25.6452 78.197 27.9724C78.2282 28.1103 78.2593 28.2481 78.2915 28.3904C78.9372 31.9684 78.2094 35.1802 76.9424 38.494C76.7273 39.059 76.5291 39.6276 76.3388 40.2012C75.1996 43.6195 73.3485 46.8793 70.5698 49.2323C68.9814 50.6067 67.4153 52.0765 66.0544 53.6788C65.8519 53.9099 65.6392 54.1252 65.42 54.3405C65.0401 54.7144 64.6892 55.1057 64.3416 55.5096C64.0672 55.8232 63.7838 56.1276 63.5002 56.4329C62.8338 57.1639 62.2257 57.9328 61.6233 58.7168C61.4645 58.9218 61.3025 59.124 61.1404 59.3263C59.7596 61.0647 58.6563 62.983 57.5686 64.9133C57.3006 65.3877 57.0258 65.8572 56.7454 66.3243C54.0187 70.8793 51.8586 75.6618 52.8947 81.0862C52.9807 81.4068 53.07 81.7268 53.1622 82.0459C53.3987 82.8975 53.5717 83.73 53.3981 84.6103C53.0599 84.9721 53.0599 84.9721 52.6429 85.1137C52.1357 85.1264 51.8308 84.8855 51.4381 84.5778C50.8031 83.8039 50.8134 82.9484 50.7941 81.9908C50.7902 81.8441 50.7863 81.6976 50.7824 81.5465C50.7729 81.1433 50.7656 80.7402 50.7592 80.3368C50.7546 80.0735 50.7486 79.8102 50.7422 79.5469C50.6104 73.8468 52.2448 69.3316 55.2437 64.5195C55.5678 63.9993 55.8879 63.4767 56.2056 62.9526C57.4067 60.9731 58.6439 59.114 60.1597 57.3619C60.4028 57.0776 60.6373 56.7868 60.8724 56.4958C61.0663 56.2597 61.2603 56.0236 61.4547 55.7878C61.5073 55.7235 61.56 55.6591 61.6141 55.5928C62.6121 54.3804 63.7081 53.2813 64.8279 52.183C65.6902 51.3347 66.4528 50.4871 67.1189 49.4741C67.5385 48.8803 68.0671 48.4386 68.6299 47.9844C68.7459 47.8903 68.8619 47.7962 68.9815 47.6992C69.0992 47.604 69.2168 47.5085 69.338 47.4101C73.1694 44.277 75.4022 38.5223 75.9232 33.6601C75.9532 33.3524 75.9805 33.0445 76.0073 32.7364C76.057 32.2517 76.057 32.2517 76.1829 31.8741C76.2122 31.6162 76.2122 31.6162 76.2144 31.3392C76.2192 31.2018 76.2192 31.2018 76.2243 31.062C76.1971 30.7186 76.1971 30.7186 75.9951 30.3534C75.712 29.7315 75.7604 29.0921 75.758 28.4207C75.6969 25.881 74.777 23.9907 73.2954 21.9546C73.1872 21.8057 73.1872 21.8057 73.077 21.6538C72.3492 20.6785 71.627 19.8772 70.5364 19.3218C70.2533 19.1543 70.0648 18.9774 69.8416 18.7372C68.4637 17.2806 66.3815 16.6095 64.5157 16.0101C64.2404 15.9212 63.9659 15.8296 63.6915 15.7377C63.5102 15.6787 63.3287 15.6199 63.1472 15.5612C63.0685 15.5346 62.9897 15.508 62.9086 15.4805C61.4309 15.0155 59.8603 14.9711 58.3248 14.974C58.1464 14.9735 57.9682 14.9728 57.7899 14.9721C57.3116 14.9704 56.8331 14.9703 56.3548 14.9706C55.9523 14.9708 55.5498 14.9701 55.1473 14.9695C54.1958 14.9682 53.2441 14.9681 52.2926 14.9689C51.3184 14.9696 50.3443 14.9681 49.3702 14.9654C48.5272 14.9632 47.6844 14.9624 46.8415 14.9628C46.341 14.9631 45.8404 14.9627 45.3399 14.961C43.2172 14.9541 41.1408 14.9836 39.0477 15.3862C38.9069 15.4125 38.7661 15.4388 38.6211 15.4659C38.3149 15.5259 38.013 15.5943 37.7101 15.6694C37.6029 15.6955 37.4956 15.7216 37.3851 15.7485C35.9579 16.111 34.5737 16.615 33.2492 17.2584C32.4488 17.6431 31.6195 17.9188 30.7788 18.2023C27.2259 19.4083 23.9165 21.0953 21.1723 23.6931C21 23.8434 20.8268 23.9927 20.6532 24.1414C19.9837 24.726 19.3594 25.3444 18.783 26.0211C18.2055 26.6848 17.5725 27.2922 16.9447 27.9078C15.7911 29.0423 14.6663 30.1591 13.7453 31.4965C13.6861 31.5808 13.6267 31.665 13.5656 31.752C10.548 36.0584 8.29126 41.0868 7.04214 46.1909C6.99556 46.3808 6.99556 46.3808 6.94805 46.5744C6.57596 48.1555 6.4064 49.6918 6.42402 51.3154C6.42502 51.5687 6.42602 51.8222 6.42699 52.0755C6.42862 52.4248 6.43142 52.7742 6.43423 53.1235C6.43907 53.7386 6.44261 54.3537 6.44528 54.9689C6.44682 55.2949 6.44902 55.6211 6.45199 55.9472C6.456 56.6661 6.43949 57.3453 6.3183 58.0533C6.07869 61.8441 7.0275 65.2835 8.08065 68.8776C8.10869 68.9732 8.13671 69.069 8.16558 69.1677C8.9309 71.7813 9.88367 74.1762 11.0626 76.6318C11.2152 76.9502 11.3665 77.2691 11.5177 77.5882C11.6268 77.8171 11.7379 78.045 11.849 78.2729C11.9158 78.4134 11.9826 78.5541 12.0514 78.6991C12.1111 78.8231 12.1708 78.9468 12.2324 79.0743C12.3824 79.5138 12.3919 79.8697 12.3607 80.331C12.1459 80.5457 11.8919 80.5187 11.5975 80.5433C11.133 80.5391 10.9191 80.5116 10.5521 80.2203C9.9749 79.5246 9.62184 78.7915 9.33947 77.9395C8.97433 76.8385 8.5431 75.8025 8.04919 74.7537C7.3252 73.2067 6.73669 71.6282 6.19242 70.0103C6.15561 69.9015 6.11879 69.7925 6.08087 69.6804C5.71096 68.5768 5.38317 67.4634 5.09096 66.3367C5.05341 66.1956 5.05341 66.1956 5.01511 66.0519C4.43613 63.7336 4.51162 61.3638 4.50801 58.9916C4.50681 58.5184 4.50255 58.0454 4.49793 57.5721C4.49858 57.4299 4.49921 57.2878 4.49987 57.1413C4.48886 56.2385 4.33572 55.4792 4.0397 54.6255C3.79232 53.8646 3.91881 53.2969 4.10751 52.5468C4.32089 51.6284 4.34006 50.7345 4.35926 49.7937C4.54015 43.1668 7.84896 35.7875 11.8571 30.6155C12.0064 30.4216 12.1558 30.2278 12.3051 30.0338C13.1051 28.998 13.9131 27.9699 14.7524 26.9655C14.8538 26.8407 14.9553 26.7159 15.0597 26.5874C16.7391 24.5487 18.6475 22.5939 20.7948 21.05C20.9846 20.9039 20.9846 20.9039 21.1783 20.755C23.5043 18.9874 26.1677 17.6483 28.8511 16.5189C28.9851 16.4626 29.119 16.4062 29.2569 16.3481C31.58 15.3814 33.9556 14.5658 36.3637 13.8383C36.591 13.7696 36.8176 13.6989 37.0441 13.6274C38.1204 13.3 39.1642 13.1222 40.2819 13.0091C40.4553 12.9904 40.6284 12.9717 40.8018 12.9528C41.1619 12.914 41.5223 12.8761 41.8827 12.839C42.3383 12.7922 42.7939 12.7436 43.2493 12.6944C43.692 12.6466 44.1348 12.5997 44.5777 12.5528C44.738 12.5358 44.8982 12.5187 45.0634 12.5012C46.6875 12.3339 48.3096 12.2218 49.9428 12.2141Z" fill="#7B458F"/>
<path d="M54.7103 21.8004C55.1597 21.8684 55.6095 21.9333 56.0595 21.9981C63.0351 23.0196 63.0351 23.0196 65.0506 24.7974C65.128 24.8613 65.2055 24.925 65.2852 24.9908C66.8242 26.3745 68.1784 28.7898 68.336 30.8449C68.4055 32.2215 68.2865 33.51 67.9386 34.8475C67.917 34.9321 67.8955 35.0165 67.8733 35.1035C66.9674 38.5989 65.1154 41.517 62.665 44.1439C62.4844 44.3506 62.3039 44.5574 62.1235 44.7643C61.4706 45.4886 60.7583 46.1378 60.0281 46.7821C59.9268 46.8719 59.9268 46.8719 59.8235 46.9637C58.7183 47.9413 57.5646 48.8448 56.3869 49.7328C56.0188 50.011 55.6533 50.2925 55.288 50.5744C54.8921 50.8799 54.4957 51.1851 54.0971 51.4871C53.1162 52.2324 52.1713 53.0125 51.2387 53.8172C51.1501 53.893 51.0616 53.9688 50.9703 54.0468C49.827 55.0348 48.677 56.0334 47.7228 57.2091C47.6098 57.3427 47.4969 57.4765 47.3839 57.6101C45.8532 59.4438 44.7264 61.3564 43.9559 63.616C43.9021 63.7717 43.8482 63.9273 43.7929 64.0877C43.607 64.6259 43.424 65.1651 43.2417 65.7046C43.2123 65.7914 43.1828 65.8782 43.1524 65.9675C42.7291 67.2198 42.3373 68.4752 42.0724 69.7717C42.0495 69.8818 42.0267 69.9916 42.0032 70.1049C41.4238 73.0369 41.4979 76.0003 41.5137 78.9754C41.5157 79.5215 41.5145 80.0678 41.5131 80.6141C41.5123 81.1453 41.5133 81.6767 41.5148 82.2081C41.5153 82.4593 41.5155 82.7104 41.515 82.9617C41.5133 84.5275 41.5739 85.9143 42.2214 87.3673C42.6121 88.2987 42.5744 89.3171 42.1979 90.2488C41.792 90.5198 41.6648 90.5764 41.1934 90.5001C40.9531 90.2563 40.9531 90.2563 40.7382 89.927C40.6668 89.8205 40.5952 89.7142 40.5214 89.6045C39.9732 88.6493 39.8572 87.8629 39.7651 86.7707C39.6299 85.3386 39.4203 83.9354 39.1484 82.5233C38.9847 81.665 38.8633 80.8198 38.8077 79.9475C38.8014 79.8479 38.795 79.7484 38.7883 79.6458C38.6633 77.1679 39.0704 74.7268 39.4356 72.2843C39.4495 72.1904 39.4634 72.0966 39.4776 72C40.0338 68.2534 40.902 64.8748 42.3941 61.3861C42.4277 61.3068 42.4613 61.2276 42.4959 61.1459C43.1825 59.5299 44.0095 58.2321 45.2115 56.9578C45.381 56.7708 45.5504 56.5838 45.7197 56.3966C46.4 55.6491 47.1037 54.9259 47.8169 54.2097C47.9044 54.1216 47.992 54.0336 48.082 53.9427C48.5778 53.4481 49.0866 52.9769 49.6168 52.5195C49.9915 52.1926 50.3511 51.8499 50.7129 51.5088C51.4493 50.8208 52.2046 50.1697 52.9965 49.5459C53.0806 49.479 53.1649 49.412 53.2518 49.3431C54.2786 48.5278 55.3053 47.7368 56.4048 47.022C57.5953 46.2253 58.6826 45.3102 59.7167 44.3212C59.84 44.2037 59.9638 44.0867 60.0883 43.9704C63.0572 41.1939 65.9197 36.8051 66.3363 32.6657C66.3985 30.5599 65.4689 28.4566 64.1325 26.8545C61.7133 24.3838 57.603 24.3255 54.3541 24.1536C54.2092 24.1458 54.2092 24.1458 54.0615 24.1378C48.0685 23.8214 42.868 24.5859 37.4265 27.1843C37.2629 27.2619 37.2629 27.2619 37.096 27.3413C35.2223 28.2375 33.4295 29.254 31.6506 30.325C31.5044 30.4122 31.5044 30.4122 31.3551 30.5012C28.3686 32.2878 25.6523 34.4987 23.4889 37.2344C23.3792 37.3614 23.3792 37.3614 23.2674 37.4907C22.5148 38.3826 21.981 39.3529 21.4485 40.3829C21.355 40.5615 21.2616 40.74 21.1681 40.9184C19.178 44.7339 17.4424 48.483 16.8708 52.7882C16.8406 53.0136 16.8051 53.2382 16.7682 53.4625C16.6996 54.0131 16.688 54.5492 16.6873 55.1034C16.6868 55.2138 16.6864 55.3244 16.686 55.4383C16.6854 55.6719 16.6851 55.9056 16.6851 56.1392C16.6848 56.4887 16.6826 56.8383 16.6802 57.1877C16.6735 59.2184 16.847 61.1559 17.3049 63.1371C17.3724 63.4411 17.4395 63.7452 17.5064 64.0494C17.5578 64.2824 17.5578 64.2824 17.61 64.5201C17.7835 65.3263 17.9412 66.1354 18.0975 66.9452C18.1288 67.1071 18.1602 67.269 18.1924 67.4358C18.3454 68.2334 18.4916 69.0313 18.6266 69.8321C18.9983 72.0339 19.4447 74.1407 20.3872 76.1753C20.6389 76.7223 20.854 77.2725 21.0546 77.8408C21.469 78.9753 21.9941 80.0495 22.5311 81.1302C22.7 81.4705 22.8678 81.8115 23.0353 82.1526C23.2555 82.6007 23.476 83.0487 23.6968 83.4965C24.5194 85.164 25.3173 86.8288 26.0158 88.553C26.7632 90.3858 27.7655 91.9155 28.9117 93.5201C30.5203 95.7778 30.5203 95.7778 30.395 97.284C30.2457 97.543 30.2457 97.543 30.0182 97.6609C29.3853 97.6331 29.0309 97.2724 28.6056 96.8443C28.5336 96.7719 28.4616 96.6995 28.3874 96.6249C27.7336 95.9342 27.3323 95.1826 26.9174 94.3346C26.6138 93.72 26.2536 93.1486 25.8824 92.573C24.6918 90.7134 23.619 88.9433 22.9473 86.8256C22.6076 85.7737 22.1191 84.8173 21.6054 83.8419C20.5207 81.7801 19.4465 79.7316 18.5919 77.5605C18.5518 77.4593 18.5116 77.3581 18.4704 77.2538C17.9726 75.9832 17.5615 74.7046 17.216 73.3845C17.1035 72.9323 17.1035 72.9323 16.9458 72.6032C16.7815 72.1346 16.7912 71.6783 16.779 71.1851C16.7017 69.3372 16.3206 67.6837 15.7832 65.9172C14.9148 62.9965 14.7898 60.0733 14.774 57.0497C14.7718 56.6679 14.7675 56.2862 14.7612 55.9046C14.6547 49.325 17.0939 43.1393 20.6009 37.6113C20.6884 37.4728 20.776 37.3341 20.8662 37.1913C22.267 35.0362 23.992 33.1759 26.0002 31.5812C26.1143 31.4887 26.2283 31.3959 26.346 31.3005C32.7325 26.2296 40.3023 23.1173 48.2644 21.5783C48.4051 21.5495 48.4051 21.5495 48.5488 21.5201C50.6031 21.1598 52.6734 21.4916 54.7103 21.8004Z" fill="#7B458F"/>
<path d="M49.135 27.8086C49.4871 27.8106 49.8392 27.8086 50.1915 27.8062C51.4434 27.8047 52.572 27.8705 53.7772 28.236C54.0167 28.3029 54.0167 28.3029 54.2611 28.371C56.4457 29.1147 58.5126 30.5516 59.5749 32.6472C60.6882 35.1217 59.5686 38.2076 58.6848 40.603C58.053 42.1537 57.1571 43.2028 56.0064 44.3932C55.7987 44.6151 55.6036 44.8438 55.4092 45.0776C55.0595 45.49 54.684 45.8325 54.2577 46.1641C54.146 46.2519 54.146 46.2519 54.0318 46.3415C53.3159 46.8857 52.5491 47.3242 51.7662 47.7638C50.8316 48.2916 49.9681 48.8871 49.1139 49.5356C49.0449 49.588 48.9757 49.6406 48.9045 49.6947C48.5595 49.9575 48.2158 50.2225 47.8734 50.4887C47.4867 50.7874 47.0959 51.0797 46.7036 51.371C41.4841 55.2941 38.1001 61.2515 36.2586 67.4322C36.2169 67.5569 36.1753 67.6817 36.1326 67.8103C36.1141 68.0013 36.102 68.1931 36.0937 68.385C36.0886 68.5035 36.0834 68.6222 36.0781 68.7445C36.0734 68.875 36.0685 69.0056 36.0635 69.14C36.0583 69.2784 36.053 69.4166 36.0476 69.559C35.9884 71.275 35.9784 72.9912 35.9762 74.7081C35.9757 75.0833 35.9738 75.4585 35.9709 75.8337C35.9548 78.0155 35.9845 80.1506 36.3846 82.3041C36.4128 82.4601 36.4411 82.6161 36.4703 82.7768C36.5466 83.1651 36.6314 83.5496 36.7233 83.9347C36.7556 84.0708 36.7879 84.2071 36.8212 84.3473C37.4805 87.032 38.5662 89.4533 39.8048 91.9156C39.9188 92.1427 40.0306 92.371 40.142 92.5993C40.2 92.7141 40.258 92.8291 40.3177 92.9474C40.4441 93.354 40.4029 93.6173 40.2916 94.0251C40.0396 94.2772 40.0396 94.2772 39.6457 94.3481C38.9564 94.248 38.6189 93.8922 38.1491 93.3949C37.9003 93.0495 37.7072 92.689 37.5188 92.3079C37.4662 92.2046 37.4136 92.1014 37.3595 91.9951C36.8229 90.9152 36.3956 89.7972 35.9909 88.6624C35.8902 88.3809 35.7862 88.1008 35.6811 87.8209C33.966 83.2029 33.3633 78.5535 33.3308 73.6591C33.3291 73.4373 33.3269 73.2157 33.324 72.9941C33.3201 72.678 33.3189 72.3622 33.3184 72.0461C33.3169 71.9519 33.3153 71.8576 33.3136 71.7604C33.3162 71.1755 33.4222 70.7331 33.6456 70.1938C33.7862 69.8267 33.8362 69.4568 33.8915 69.0687C33.9171 68.9006 33.9431 68.7328 33.9693 68.5648C33.9827 68.4778 33.9961 68.3908 34.0101 68.3013C34.3513 66.1515 34.9799 64.2531 35.8804 62.2649C35.9446 62.121 36.0089 61.977 36.0751 61.8287C37.2757 59.1635 38.6667 56.5784 40.5436 54.3247C40.653 54.1899 40.7623 54.0552 40.8715 53.9202C42.6657 51.7279 44.7068 50.0658 47.0488 48.4892C47.802 47.9817 48.5407 47.4591 49.2715 46.9203C50.0075 46.3781 50.7593 45.8935 51.548 45.4317C52.5155 44.8604 53.3171 44.2041 54.1073 43.4082C54.2694 43.246 54.436 43.0881 54.6029 42.9306C56.4281 41.1883 57.2702 39.0674 57.3318 36.5591C57.3345 36.2897 57.3364 36.0203 57.3377 35.7507C57.3403 35.6172 57.343 35.4836 57.3455 35.3461C57.3523 33.9691 57.1118 32.6935 56.172 31.6389C54.4397 30.1772 50.479 29.5038 48.2533 29.6525C46.7509 29.8346 45.2714 30.2879 43.8155 30.6894C43.5637 30.7579 43.3114 30.8246 43.059 30.8905C38.6523 32.0413 35.0158 34.3188 32.0733 37.8136C31.7663 38.1574 31.4359 38.4765 31.1068 38.7992C30.5196 39.3779 29.9828 39.9781 29.4709 40.6256C29.2916 40.8509 29.1076 41.0722 28.9185 41.2892C28.3671 41.9274 27.9052 42.5805 27.4912 43.3128C27.45 43.3855 27.4088 43.4583 27.3662 43.5334C27.2156 43.8089 27.0733 44.0876 26.932 44.3682C26.8206 44.589 26.8206 44.589 26.7069 44.8142C26.0492 46.1478 25.5398 47.5151 25.0676 48.9241C24.9469 49.2837 24.8237 49.6424 24.7003 50.0014C24.092 51.7869 23.5915 53.5738 23.3164 55.4434C23.3016 55.5363 23.2871 55.6293 23.2718 55.7249C23.0834 56.9563 23.0057 58.1786 23.0082 59.4238C23.008 59.5579 23.008 59.692 23.0079 59.8302C23.0077 60.1128 23.008 60.3955 23.0086 60.6783C23.0092 61.101 23.0086 61.5238 23.0077 61.9465C23.0072 62.767 23.0145 63.5871 23.025 64.4074C23.026 64.5322 23.0269 64.657 23.0281 64.7856C23.0435 66.2163 23.1824 67.4774 23.6054 68.8437C23.8181 69.5439 23.9596 70.2558 24.1007 70.9734C24.127 71.1065 24.1533 71.2394 24.1802 71.3764C24.2606 71.7867 24.34 72.197 24.4192 72.6073C25.1167 76.2332 25.1167 76.2332 26.1679 79.7676C26.2205 79.9207 26.2731 80.0737 26.3272 80.2313C26.6131 81.0514 26.9245 81.8441 27.3031 82.6259C27.4454 82.9557 27.5343 83.2783 27.6174 83.6274C27.882 84.6513 28.3824 85.4735 29.0289 86.3046C29.8508 87.3657 30.4447 88.5008 31.0481 89.6977C31.7425 91.0661 32.5336 92.3554 33.3598 93.647C33.6269 94.0659 33.8918 94.4861 34.1554 94.9073C34.2151 95.0002 34.275 95.0929 34.3366 95.1886C34.8442 96.0014 34.8442 96.0014 34.7462 96.5458C34.4648 96.9793 34.2772 97.0422 33.7694 97.1523C33.2824 97.1226 33.0862 96.9544 32.7675 96.5945C32.098 95.8055 31.598 94.9178 31.0832 94.0251C30.9781 93.8447 30.8726 93.6645 30.7671 93.4842C30.6071 93.2111 30.4474 92.9379 30.2881 92.6645C29.8162 91.8549 29.332 91.0532 28.8461 90.2519C28.057 88.9438 27.3053 87.6166 26.5656 86.28C26.3404 85.8733 26.1123 85.4692 25.8726 85.0708C24.5269 82.8248 23.9647 80.3995 23.3878 77.8734C23.2945 77.4655 23.1999 77.0579 23.1042 76.6503C22.9465 75.9734 22.7954 75.295 22.6468 74.616C22.6125 74.4595 22.5783 74.3028 22.543 74.1416C21.9264 71.3157 21.3582 68.499 21.0273 65.6232C20.9337 64.8428 20.7943 64.091 20.6067 63.3282C20.2671 61.918 20.2481 60.6073 20.6613 59.2002C20.8548 58.5116 20.9096 57.8215 20.9637 57.1113C21.066 55.7819 21.2115 54.4914 21.5126 53.1904C21.5351 53.0901 21.5579 52.9897 21.5813 52.8863C22.6475 48.252 24.3371 43.454 27.4743 39.8267C27.7285 39.5323 27.9787 39.2346 28.2287 38.9365C28.3969 38.7363 28.5665 38.5372 28.7363 38.3384C28.9656 38.0698 29.1919 37.7992 29.4168 37.5271C30.9598 35.672 32.6504 33.9241 34.6201 32.5211C34.6949 32.4673 34.7697 32.4134 34.8467 32.358C37.2581 30.6384 40.0711 29.3914 42.9068 28.559C43.0001 28.5309 43.0936 28.5029 43.1898 28.4741C45.1347 27.9381 47.1266 27.7949 49.135 27.8086Z" fill="#7B458F"/>
<path d="M49.6497 34.31C50.7371 34.8548 51.3326 35.6795 51.7249 36.8148C52.1313 38.454 51.8204 40.1812 51.0058 41.6451C49.789 43.4734 47.8278 44.4298 45.9741 45.5097C41.6621 48.0238 38.1399 51.1628 36.6129 56.0569C36.1926 57.4014 35.5047 58.7602 34.6527 59.8865C34.2102 60.0282 34.2102 60.0282 33.7675 60.0125C33.4593 59.847 33.4593 59.847 33.2617 59.5082C33.1523 58.6128 33.3348 57.8333 33.6332 56.9947C33.6729 56.8804 33.7127 56.7661 33.7536 56.6484C35.2167 52.5597 37.8573 48.7823 41.2287 46.0183C41.3366 45.9205 41.4446 45.8227 41.5557 45.7218C42.5423 44.8489 43.58 44.303 44.7697 43.7489C46.6564 42.8474 48.7867 41.156 49.7332 39.2373C49.9477 38.6059 49.9783 38.0306 49.7011 37.4157C49.2349 36.7112 48.6126 36.2943 47.8047 36.0584C45.8247 35.7944 43.9655 36.5579 42.3841 37.7087C42.0779 37.9515 41.7791 38.2005 41.4816 38.4538C41.3761 38.5334 41.2708 38.613 41.162 38.6951C40.8279 38.9762 40.5937 39.2607 40.3355 39.612C40.237 39.7463 40.1383 39.8806 40.0367 40.019C39.9279 40.1695 39.8196 40.3201 39.7112 40.471C39.6252 40.5903 39.6252 40.5903 39.5377 40.7122C39.085 41.343 38.6384 41.9779 38.1937 42.6143C38.1243 42.7131 38.0551 42.8119 37.9837 42.9137C36.0946 45.615 34.5942 48.2572 33.5009 51.3719C33.3496 51.8008 33.1922 52.2271 33.0324 52.653C33.0039 52.7295 32.9752 52.8061 32.9457 52.8849C32.7366 53.4392 32.5173 53.9889 32.2954 54.5382C31.1436 57.3965 30.4416 60.1574 29.929 63.1883C29.878 63.4877 29.825 63.787 29.7689 64.0856C29.4321 65.9834 29.5754 67.6449 30.0372 69.4973C30.5323 71.4968 30.8826 73.4924 31.1355 75.5355C31.7084 80.1108 32.5577 84.5198 34.5816 88.7024C34.6457 88.8353 34.7099 88.9684 34.776 89.1054C35.4875 90.5698 36.2411 92.012 37.0005 93.4522C37.6652 94.7277 37.6652 94.7277 37.5614 95.1874C37.3483 95.5012 37.1209 95.7358 36.8025 95.9439C36.4233 95.9832 36.4233 95.9832 36.0438 95.8177C35.4662 95.2669 35.0564 94.6055 34.6764 93.9108C34.6225 93.8137 34.5687 93.7163 34.5133 93.6161C34.0582 92.7755 33.6749 91.91 33.3228 91.0219C33.1187 90.5195 32.9016 90.0412 32.6207 89.5768C31.8212 88.2536 31.3695 86.9542 30.9774 85.4638C30.9129 85.2261 30.8485 84.9886 30.7839 84.7509C30.1872 82.5296 29.6965 80.2885 29.2616 78.0307C29.2194 77.8119 29.1758 77.5931 29.1322 77.3746C28.7958 75.6852 28.601 73.9888 28.4249 72.2771C28.3177 71.2375 28.2075 70.2238 27.9186 69.216C27.6125 68.0993 27.6498 66.9447 27.65 65.7962C27.6498 65.6999 27.6494 65.6036 27.6493 65.5044C27.6503 61.4537 28.853 57.8436 30.2381 54.0826C30.6826 52.8742 31.1095 51.6598 31.5356 50.4448C31.7293 49.893 31.9252 49.342 32.1235 48.792C32.175 48.6487 32.2264 48.5054 32.2795 48.3578C32.8031 46.9464 33.5221 45.715 34.3683 44.4739C34.4459 44.3588 34.5234 44.2436 34.6035 44.1249C34.8893 43.7014 35.1761 43.2789 35.4631 42.8564C35.6176 42.6288 35.7716 42.401 35.9253 42.1729C35.9743 42.1002 36.0235 42.0276 36.074 41.9527C36.4531 41.3854 36.8098 40.8058 37.165 40.2234C38.8041 37.5405 40.6116 35.806 43.5776 34.6071C43.9893 34.4287 44.3589 34.2193 44.7459 33.9938C46.3099 33.2039 48.1212 33.6435 49.6497 34.31Z" fill="#7B458F"/>
<path d="M63.953 8.71143C64.1188 8.75122 64.1188 8.75122 64.2881 8.7918C64.4002 8.82043 64.5122 8.84907 64.6275 8.87857C64.8327 8.9242 65.038 8.96943 65.2432 9.01425C70.0578 10.1238 74.9545 11.6843 77.7756 16.0394C80.0109 19.638 81.7365 24.0715 82.4175 28.2526C82.4553 28.4781 82.4998 28.7023 82.5454 28.9261C82.9116 30.8454 82.812 32.8125 82.3973 34.7106C82.2328 35.4817 82.1623 36.2242 82.1388 37.0119C82.1065 37.9595 82.0115 38.8046 81.707 39.7096C81.6789 39.7936 81.6507 39.8777 81.6217 39.9641C79.6495 45.7619 76.2581 49.8509 71.9868 54.1222C71.6347 54.4742 71.2834 54.8267 70.9321 55.1794C70.658 55.4546 70.3836 55.7294 70.1092 56.0041C69.9794 56.134 69.85 56.2638 69.7204 56.3939C69.0761 57.0407 68.429 57.6782 67.7343 58.2711C65.7242 60.01 64.1555 62.0582 62.8693 64.3744C62.8171 64.4672 62.765 64.5599 62.7112 64.6556C61.942 66.0328 61.2826 67.4479 60.6795 68.9046C60.6172 69.0547 60.555 69.2046 60.4907 69.3592C59.6794 71.3558 59.1126 73.318 59.0729 75.4798C59.071 75.5724 59.0692 75.6648 59.0673 75.7601C59.0588 76.2304 59.0548 76.7004 59.0568 77.1709C59.0553 77.3472 59.0536 77.5236 59.0517 77.6997C59.0522 77.8569 59.0526 78.0139 59.0531 78.1757C58.9554 78.7079 58.7652 78.8906 58.3483 79.2236C57.9558 79.3494 57.9558 79.3494 57.5947 79.3494C57.3873 79.2182 57.3873 79.2182 57.218 78.9719C57.1789 78.6541 57.1624 78.3681 57.1636 78.0502C57.1622 77.9125 57.1622 77.9125 57.1609 77.772C57.1592 77.4718 57.1607 77.1719 57.1631 76.872C57.1634 76.7697 57.1639 76.6673 57.1643 76.562C57.2007 69.9801 60.0475 64.1961 64.0384 59.1092C64.2679 58.8154 64.495 58.5195 64.7218 58.2235C64.8787 58.019 65.0356 57.8147 65.1926 57.6104C65.2649 57.516 65.3373 57.4214 65.4118 57.324C65.9674 56.605 66.5322 55.9949 67.2806 55.4712C68.727 54.4578 69.9714 53.2709 71.2125 52.0202C71.4871 51.7436 71.7631 51.4684 72.039 51.1936C72.9751 50.2563 73.8618 49.3148 74.6743 48.2668C74.7921 48.1237 74.9105 47.9811 75.0294 47.8391C77.5451 44.741 80.0065 40.5082 80.1098 36.4244C80.1145 36.2593 80.1191 36.094 80.124 35.9238C80.1308 35.6645 80.1373 35.4053 80.1439 35.1459C80.1503 34.8931 80.1575 34.6403 80.1647 34.3875C80.1685 34.2374 80.1724 34.0875 80.1763 33.9331C80.1961 33.6085 80.2477 33.3515 80.3257 33.04C80.3583 32.4507 80.3566 31.8605 80.3571 31.2705C80.3571 31.1853 80.3573 31.1002 80.3573 31.0126C80.355 29.6028 80.2619 28.2511 79.9488 26.8738C79.9273 26.7772 79.9057 26.6806 79.8835 26.581C79.3956 24.4508 78.6162 22.4494 77.7393 20.4533C77.6367 20.2195 77.5351 19.9855 77.4335 19.7514C75.9419 16.4152 73.3163 13.957 69.9246 12.6234C69.4804 12.4559 69.034 12.2953 68.5862 12.1378C68.2881 12.0312 67.9929 11.9187 67.698 11.8034C66.8111 11.4629 66.0081 11.2303 65.0592 11.1516C64.1584 11.0667 63.6962 10.8279 63.1205 10.137C63.0376 10.0539 62.9548 9.97087 62.8693 9.88529C62.8223 9.45272 62.8223 9.45272 62.8693 9.00441C63.2387 8.62771 63.4502 8.58415 63.953 8.71143Z" fill="#7B458F"/>
<path d="M70.2864 5.5997C70.4466 5.60078 70.4466 5.60078 70.6101 5.60189C72.8928 5.66574 74.663 6.97324 76.2121 8.55652C76.4134 8.77527 76.6117 8.99657 76.8098 9.21824C77.5447 10.0402 78.2956 10.6859 79.2064 11.3044C79.714 11.6526 80.1677 12.0268 80.6074 12.457C80.6927 12.5394 80.778 12.6218 80.8659 12.7066C83.37 15.3006 85.2154 19.1888 86.1328 22.6485C86.1701 22.7696 86.2073 22.8905 86.2458 23.0152C86.7073 24.5309 86.7777 26.1462 86.8431 27.7211C86.882 28.1377 86.9632 28.5148 87.0709 28.918C88.5572 35.0179 86.1477 42.7873 82.9933 48.0644C81.788 49.9727 80.2551 51.6811 78.7839 53.3844C78.5968 53.6021 78.4114 53.8208 78.2262 54.0401C77.4477 54.9605 76.6444 55.8524 75.8216 56.7334C75.3961 57.1894 74.9851 57.6564 74.5796 58.1301C74.4651 58.2618 74.3506 58.3932 74.2361 58.5248C73.451 59.4302 72.6984 60.3522 71.9794 61.3116C71.8096 61.5369 71.6376 61.7607 71.4655 61.9845C69.9146 64.0118 68.5409 66.1632 67.1962 68.3316C67.0717 68.5303 66.9437 68.7267 66.8148 68.9223C66.0284 70.1405 65.5773 71.552 65.1509 72.929C65.1068 73.071 65.0627 73.2131 65.0174 73.3594C64.9312 73.6409 64.8467 73.9227 64.7643 74.2052C64.7055 74.399 64.7055 74.399 64.6456 74.5966C64.6117 74.7119 64.5777 74.8274 64.543 74.9463C64.383 75.2955 64.2378 75.432 63.9052 75.6194C63.4441 75.5916 63.231 75.5729 62.9006 75.242C62.5655 73.8986 62.8643 72.7891 63.3403 71.5224C63.3972 71.3671 63.4544 71.2118 63.5133 71.0517C63.8345 70.1916 64.1664 69.3374 64.5489 68.5027C64.5835 68.4259 64.6179 68.3491 64.6536 68.2701C64.9556 67.6446 65.3612 67.1058 65.7735 66.5491C66.2065 65.9542 66.6032 65.336 67.0056 64.72C67.7956 63.521 68.6287 62.3721 69.5138 61.242C69.7455 60.9419 69.9649 60.6335 70.1842 60.3243C71.1108 59.0367 72.13 57.8093 73.2011 56.6404C73.4357 56.3836 73.6628 56.1218 73.8889 55.8575C74.2096 55.4878 74.5458 55.1403 74.8935 54.7959C75.4018 54.2917 75.8744 53.7688 76.3376 53.2232C76.4351 53.1116 76.5326 53 76.633 52.8851C78.1277 51.1616 79.4944 49.3182 80.723 47.3954C80.8533 47.1919 80.9858 46.99 81.1186 46.7881C82.2217 45.0651 83.0393 43.1994 83.6695 41.2558C83.7394 41.0411 83.8129 40.8277 83.8866 40.6144C84.6056 38.4506 84.8919 36.1818 84.907 33.91C84.9085 33.6861 84.9085 33.6861 84.9101 33.4575C84.9118 33.1416 84.9131 32.8258 84.9141 32.5099C84.9155 32.1938 84.918 31.8778 84.9218 31.5618C84.9486 29.2969 84.7718 27.1426 84.3748 24.9134C84.3271 24.6401 84.2796 24.3666 84.2321 24.0933C84.1355 23.5405 84.0381 22.988 83.9287 22.4374C83.8924 22.2492 83.8602 22.06 83.8329 21.8701C83.6812 20.9635 83.2221 20.2585 82.7423 19.4873C82.6571 19.3482 82.572 19.2092 82.4843 19.0659C82.2377 18.6649 81.9883 18.2656 81.7375 17.8674C81.6752 17.768 81.6128 17.6688 81.5485 17.5664C79.8877 14.9469 77.8341 12.7359 75.5531 10.6473C75.3637 10.4723 75.1781 10.2933 74.9931 10.1135C73.5414 8.72419 71.7857 7.88578 69.8625 7.35334C69.3928 7.2164 69.0792 7.09713 68.8029 6.66919C68.748 6.34677 68.748 6.34677 68.8029 6.04009C69.2008 5.53458 69.6871 5.59509 70.2864 5.5997Z" fill="#7B458F"/>
<path d="M78.384 4.74738C79.7309 4.7652 80.492 5.3436 81.4815 6.16034C81.6643 6.30847 81.8472 6.45658 82.03 6.60463C82.402 6.90734 82.7715 7.21257 83.1399 7.51972C83.5053 7.82374 83.8764 8.11654 84.2572 8.40142C87.2525 10.7221 88.4883 14.5158 89.4853 18.022C89.6997 18.7692 89.932 19.5021 90.2107 20.228C90.2417 20.309 90.2726 20.3902 90.3047 20.4737C90.4356 20.8114 90.5715 21.1461 90.7158 21.4782C91.0582 22.305 91.1461 23.0908 91.2233 23.9732C91.2894 24.6892 91.4015 25.3786 91.5669 26.0785C91.5869 26.1648 91.6068 26.2513 91.6273 26.3403C91.7219 26.7226 91.8288 27.0485 92.0213 27.3933C92.2367 27.8693 92.2582 28.2138 92.2649 28.7348C92.266 28.823 92.2672 28.9112 92.2684 29.002C92.271 29.2857 92.2703 29.5692 92.2688 29.8528C92.2688 29.9971 92.2688 29.9971 92.2688 30.1443C92.2657 31.607 92.1192 32.8451 91.5749 34.2171C91.4275 34.791 91.4156 35.3631 91.3944 35.9519C91.3851 36.1742 91.3758 36.3963 91.3663 36.6184C91.3522 36.9639 91.3384 37.3093 91.3257 37.6549C91.0581 44.7909 88.23 51.0654 83.6844 56.5165C83.4261 56.8269 83.1715 57.1404 82.9166 57.4536C81.8046 58.8047 80.6682 60.1236 79.4628 61.3931C79.3286 61.535 79.3286 61.535 79.1917 61.6796C78.3555 62.5391 77.4398 63.298 76.4284 63.944C75.693 64.419 75.2228 64.8789 74.7883 65.6473C74.465 66.1744 74.0883 66.6461 73.6985 67.1256C73.628 67.2141 73.5574 67.3026 73.4846 67.3938C73.4168 67.4767 73.349 67.5596 73.2791 67.6451C73.2187 67.7193 73.1581 67.7934 73.0959 67.8699C72.7216 68.2395 72.451 68.3112 71.9244 68.3287C71.789 68.3234 71.6537 68.3184 71.5143 68.3129C71.2436 67.8745 71.2027 67.5659 71.2619 67.0549C71.4495 66.6537 71.6878 66.291 71.9322 65.9224C72.0009 65.817 72.0694 65.7117 72.1401 65.603C73.4524 63.6145 74.9224 61.8219 76.9395 60.5124C78.3825 59.5516 79.4048 58.3927 80.4273 57.0048C80.751 56.5772 81.0878 56.1645 81.4342 55.755C81.4886 55.6903 81.5429 55.6255 81.599 55.5588C81.9014 55.2043 82.2159 54.8717 82.5499 54.5465C82.9905 54.1119 83.3684 53.6485 83.7366 53.1523C83.8018 53.0646 83.8669 52.9769 83.9341 52.8867C85.5934 50.6209 86.8154 48.0858 87.6636 45.4147C87.7077 45.2795 87.7518 45.1444 87.7973 45.0052C88.9049 41.594 89.4123 38.2883 89.4953 34.7004C89.5277 33.6318 89.6352 32.6426 90.0134 31.6379C90.4507 30.3476 90.053 29.1116 89.7487 27.8337C89.5273 26.8838 89.3423 25.9254 89.1934 24.9618C88.9032 23.2109 88.509 21.5081 87.8633 19.8528C87.6177 19.2217 87.4157 18.5927 87.2378 17.9397C86.291 14.5563 84.5764 11.1565 81.6194 9.12982C80.5998 8.42921 79.7418 7.63324 78.893 6.73528C78.7292 6.56248 78.562 6.39283 78.3944 6.22373C78.3123 6.13794 78.2304 6.05215 78.1459 5.96375C78.0784 5.89352 78.0109 5.82331 77.9414 5.75094C77.8226 5.53126 77.8226 5.53126 77.8576 5.19756C77.9849 4.78481 77.9849 4.78481 78.384 4.74738Z" fill="#7B458F"/>
<path d="M45.0581 7.6607C45.2301 7.65957 45.4022 7.65843 45.5742 7.65726C45.9329 7.65521 46.2915 7.65424 46.6502 7.65387C47.1095 7.65319 47.5687 7.64845 48.0278 7.64275C48.3823 7.63902 48.7368 7.6381 49.0913 7.63798C49.3426 7.6372 49.5942 7.63351 49.8455 7.62976C49.9982 7.63052 50.151 7.63129 50.3082 7.63207C50.4426 7.63144 50.5769 7.6308 50.7151 7.63015C51.0647 7.70725 51.0647 7.70725 51.3637 8.00492C51.5673 8.33436 51.5673 8.33436 51.5595 8.66359C51.4316 8.98696 51.3332 9.1207 51.0647 9.33772C50.7993 9.40504 50.7993 9.40504 50.4863 9.43474C50.3077 9.45356 50.3077 9.45356 50.1256 9.47277C49.9295 9.49129 49.9295 9.49129 49.7294 9.51019C48.7958 9.60775 47.8685 9.7174 46.9426 9.87274C45.1407 10.1748 43.4057 10.3767 41.5766 10.3881C39.7321 10.4012 38.1049 10.7369 36.3614 11.3445C35.4457 11.6558 34.5296 11.944 33.5966 12.1989C32.7326 12.4387 31.892 12.7098 31.0519 13.022C29.9221 13.4377 28.7664 13.7134 27.5959 13.9862C26.2038 14.3128 24.8514 14.6385 23.5432 15.2326C23.3847 15.3031 23.3847 15.3031 23.223 15.375C20.8417 16.4424 18.6215 17.7434 16.4739 19.2211C16.2549 19.3711 16.0343 19.5188 15.8136 19.6665C14.047 20.866 12.5438 22.3369 11.2276 24.0122C11.1639 24.0927 11.1002 24.1733 11.0346 24.2564C10.3274 25.1568 9.64678 26.0371 9.16342 27.0816C8.92661 27.461 8.63681 27.7313 8.31647 28.0411C7.94568 28.4197 7.64297 28.8388 7.33974 29.272C7.27475 29.3649 7.20974 29.4576 7.14277 29.5533C6.51889 30.4644 6.01623 31.4059 5.57253 32.4155C5.53111 32.5096 5.48971 32.6038 5.44703 32.7008C3.99179 36.0654 2.83609 39.7758 2.74277 43.4489C2.70496 44.5827 2.65625 45.8615 1.80246 46.7136C1.36262 46.8233 1.36262 46.8233 0.922777 46.7136C0.418596 46.2328 0.100914 45.7345 0.00087772 45.0413C-0.0100081 44.3514 0.0806734 43.7385 0.255652 43.0708C0.301823 42.8923 0.347924 42.7138 0.393961 42.5351C0.430964 42.3926 0.430964 42.3926 0.468716 42.2473C0.605304 41.716 0.735284 41.1829 0.866324 40.6502C3.28596 30.8615 3.28596 30.8615 6.0531 27.6328C6.72829 26.8218 7.29113 25.9508 7.86128 25.0653C10.2571 21.3487 13.1569 18.4469 17.0034 16.2582C17.3185 16.0766 17.6291 15.8878 17.9394 15.698C20.0645 14.403 22.1908 13.2823 24.5485 12.4733C24.6803 12.4272 24.8121 12.3812 24.9478 12.3337C26.7938 11.6902 28.6468 11.129 30.5461 10.6649C30.8007 10.5999 31.0528 10.5248 31.3041 10.4484C31.7126 10.3409 32.0606 10.3162 32.4814 10.3098C33.2774 10.259 33.8415 10.0189 34.5485 9.66648C36.4829 8.75291 38.6848 8.4276 40.8093 8.39279C41.3926 8.37517 41.7573 8.22705 42.2678 7.95809C43.1913 7.65752 44.0927 7.66467 45.0581 7.6607Z" fill="#7B458F"/>
<path d="M44.7339 4.0511C44.8438 4.05988 44.9539 4.06866 45.0672 4.0777C45.7965 4.14989 46.2713 4.29849 46.8023 4.82938C46.8181 5.15956 46.8181 5.15956 46.8023 5.45829C45.8103 5.83207 44.8119 6.00125 43.7664 6.15796C43.6772 6.17156 43.5882 6.18514 43.4962 6.19913C41.3502 6.52478 39.2292 6.70893 37.059 6.76458C31.4883 6.90915 26.4055 8.46193 21.3711 10.7572C21.1255 10.8691 20.8798 10.9803 20.634 11.0914C18.7454 11.9468 16.8682 12.8153 15.0898 13.8858C14.9911 13.9451 14.8924 14.0044 14.7908 14.0655C12.8841 15.221 11.1661 16.4971 9.55263 18.0366C9.44378 18.1388 9.33494 18.2409 9.22279 18.3462C6.89235 20.5919 5.18752 23.453 4.48551 26.6102C4.33096 27.2918 4.15915 27.8206 3.66158 28.3351C3.3863 28.4766 3.3863 28.4766 3.0245 28.4844C2.52192 28.3137 2.14983 28.0587 1.87616 27.5962C1.83786 27.0368 1.92294 26.6189 2.11606 26.0955C2.19344 25.8847 2.19344 25.8847 2.27237 25.6697C2.35657 25.4481 2.35657 25.4481 2.44246 25.2219C2.49989 25.0695 2.55732 24.9171 2.61648 24.7601C3.55823 22.3013 4.78479 20.0222 6.53238 18.0366C6.61982 17.9354 6.70725 17.8343 6.79735 17.73C9.0642 15.1547 11.5759 13.373 14.5864 11.7474C14.6971 11.6877 14.6971 11.6877 14.81 11.6267C18.0413 9.88344 21.2801 8.17937 24.7011 6.83404C24.7863 6.80054 24.8714 6.76704 24.9593 6.73252C26.4954 6.13161 28.0523 5.5387 29.6641 5.17528C29.747 5.15519 29.83 5.13508 29.9155 5.11436C31.124 4.83427 32.3424 4.80966 33.5784 4.78064C35.5345 4.73235 37.4489 4.65932 39.354 4.18475C41.1205 3.75404 42.9369 3.89982 44.7339 4.0511Z" fill="#7B458F"/>
<path d="M88.1193 6.8296C88.4335 7.03311 88.6302 7.19181 88.879 7.45765C88.9433 7.52484 89.0076 7.59203 89.0737 7.66128C89.3125 7.92221 89.5391 8.19071 89.7651 8.46252C89.8176 8.52491 89.8701 8.58731 89.9242 8.6516C90.1023 8.86464 90.2781 9.07943 90.4535 9.29467C90.5351 9.39242 90.5351 9.39242 90.6186 9.49213C91.6513 10.7789 92.3779 12.3374 93.1385 13.7935C93.2319 13.9717 93.3259 14.1496 93.4205 14.3271C94.3693 16.1078 94.9491 17.7371 94.9794 19.7734C95.0071 21.3263 95.1799 22.7629 95.5565 24.2696C95.8777 25.5617 96.01 26.7631 96 28.0967C95.9991 28.2606 95.9985 28.4246 95.9976 28.5934C95.9873 29.6187 95.951 30.6389 95.8655 31.6609C95.8522 31.8318 95.8523 31.8318 95.8387 32.0061C95.8232 32.1625 95.8232 32.1625 95.8076 32.3218C95.799 32.4115 95.7903 32.5014 95.7815 32.594C95.6972 32.8942 95.5826 33.0182 95.3353 33.2074C94.8191 33.2608 94.6351 33.2467 94.196 32.9563C93.9952 32.4795 94.0476 31.9359 94.0427 31.4268C94.0391 31.2196 94.0355 31.0122 94.0318 30.8049C94.0266 30.4814 94.022 30.158 94.0186 29.8345C94.005 27.6097 94.005 27.6097 93.4263 25.4764C93.2898 25.1153 93.2755 24.8255 93.2708 24.4403C93.2679 24.3003 93.265 24.1602 93.2619 24.0157C93.2594 23.8677 93.257 23.7195 93.2545 23.5669C93.2173 22.2204 93.1081 20.9533 92.8035 19.6417C92.7697 19.4871 92.7361 19.3324 92.7015 19.1731C92.0645 16.519 90.6214 14.1302 89.154 11.8539C88.7355 11.2032 88.3305 10.5449 87.9295 9.88347C87.8361 9.73028 87.8361 9.73028 87.7408 9.57401C86.601 7.68747 86.601 7.68747 86.7268 7.08082C87.196 6.77048 87.5752 6.73172 88.1193 6.8296Z" fill="#7B458F"/>
<path d="M35.4076 0.898534C35.6119 1.24387 35.6119 1.24387 35.6197 1.6991C35.4708 2.17146 35.3898 2.2471 34.9834 2.49964C33.8685 2.91345 32.5413 2.7989 31.3698 2.8136C29.1955 2.84108 27.2445 3.02857 25.1793 3.75542C25.0311 3.80674 24.8828 3.85805 24.7302 3.91093C23.642 4.31639 22.6431 4.84654 21.6299 5.41168C20.757 5.89743 19.8708 6.34647 18.9732 6.78497C16.5852 7.96146 14.5252 9.41692 12.5281 11.1748C12.3879 11.297 12.2476 11.4191 12.1074 11.5412C11.9387 11.6898 11.9387 11.6898 11.7666 11.8414C11.4789 12.0435 11.4789 12.0435 11.0154 12.0357C10.599 11.918 10.599 11.918 10.3477 11.5412C10.3724 10.8569 10.5368 10.4975 10.984 9.9872C11.1381 9.80971 11.1381 9.80971 11.2953 9.62862C11.3973 9.51385 11.4994 9.39908 11.6046 9.28084C11.6885 9.18031 11.7724 9.07978 11.8589 8.9762C13.2992 7.27585 15.2074 6.33689 17.1701 5.36852C17.8801 5.01801 18.5814 4.65441 19.2797 4.28128C20.8037 3.47218 22.3582 2.72501 23.9225 1.99733C24.0183 1.95257 24.1143 1.90781 24.2132 1.86171C26.6909 0.726626 32.9723 -1.1157 35.4076 0.898534Z" fill="#7B458F"/>
</g>
<defs>
<clipPath id="clip0_722_1413">
<rect width="96" height="98" fill="white"/>
</clipPath>
</defs>
</svg>
