<svg width="234" height="96" viewBox="0 0 234 96" fill="none" xmlns="http://www.w3.org/2000/svg">
<g filter="url(#filter0_d_839_1450)">
<path d="M24.5583 54.448C21.4436 54.448 18.713 53.7653 16.3663 52.4C14.0623 51.0347 12.2703 49.136 10.9903 46.704C9.71031 44.2293 9.07031 41.3707 9.07031 38.128C9.07031 34.8427 9.71031 31.9627 10.9903 29.488C12.2703 26.9707 14.0623 25.0293 16.3663 23.664C18.713 22.256 21.4436 21.552 24.5583 21.552C27.801 21.552 30.6383 22.32 33.0703 23.856C35.545 25.392 37.3156 27.504 38.3823 30.192L34.9903 31.344C34.3076 29.3813 33.0276 27.8453 31.1503 26.736C29.3156 25.584 27.161 25.008 24.6863 25.008C22.3396 25.008 20.2703 25.5413 18.4783 26.608C16.729 27.6747 15.3636 29.1893 14.3823 31.152C13.4436 33.1147 12.9743 35.4187 12.9743 38.064C12.9743 41.9893 14.0196 45.1253 16.1103 47.472C18.2436 49.8187 21.081 50.992 24.6223 50.992C27.0116 50.992 29.1236 50.4587 30.9583 49.392C32.793 48.2827 34.1796 46.7467 35.1183 44.784L38.4463 45.936C37.2943 48.624 35.5023 50.7147 33.0703 52.208C30.6383 53.7013 27.801 54.448 24.5583 54.448ZM71.9623 54.768C62.1063 54.768 55.3223 47.792 55.3223 38.512C55.3223 29.232 62.1063 22.32 71.9623 22.32C81.8183 22.32 88.6023 29.232 88.6023 38.512C88.6023 47.792 81.8183 54.768 71.9623 54.768ZM59.0343 38.512C59.0343 45.616 63.8983 51.696 71.9623 51.696C80.0263 51.696 84.8903 45.616 84.8903 38.512C84.8903 31.472 80.0263 25.392 71.9623 25.392C63.8983 25.392 59.0343 31.472 59.0343 38.512ZM112.696 54H108.852V22.75H112.258L112.414 29.6562C113.456 27.2396 114.998 25.3854 117.039 24.0938C119.102 22.7812 121.508 22.125 124.258 22.125C124.758 22.125 125.268 22.1562 125.789 22.2188C126.331 22.2604 126.862 22.3333 127.383 22.4375L126.914 25.9062C125.893 25.6979 124.873 25.5938 123.852 25.5938C121.685 25.5938 119.758 26.125 118.071 27.1875C116.383 28.25 115.06 29.7188 114.102 31.5938C113.164 33.4479 112.696 35.5938 112.696 38.0312V54ZM156.163 54.64C153.774 54.64 151.726 54.2773 150.019 53.552C148.313 52.8267 147.011 51.8027 146.115 50.48C145.219 49.1147 144.771 47.536 144.771 45.744C144.771 43.9093 145.219 42.3947 146.115 41.2C147.054 40.0053 148.377 39.0453 150.083 38.32C151.79 37.5947 153.817 37.0827 156.163 36.784L167.683 35.376C167.555 32.3467 166.638 30.1067 164.931 28.656C163.267 27.2053 160.963 26.48 158.019 26.48C156.355 26.48 154.777 26.8 153.283 27.44C151.79 28.0373 150.211 29.0187 148.547 30.384L146.947 27.696C148.313 26.3733 149.934 25.3067 151.811 24.496C153.731 23.6853 155.801 23.28 158.019 23.28C162.414 23.28 165.699 24.3467 167.875 26.48C170.094 28.6133 171.203 31.6853 171.203 35.696V54H167.747V48.624C166.595 50.6293 165.017 52.144 163.011 53.168C161.006 54.1493 158.723 54.64 156.163 54.64ZM156.675 51.504C159.065 51.504 161.07 51.0133 162.691 50.032C164.313 49.008 165.55 47.7067 166.403 46.128C167.257 44.5493 167.683 42.928 167.683 41.264V38.384L156.867 39.728C154.179 40.0267 152.089 40.624 150.595 41.52C149.145 42.416 148.419 43.8027 148.419 45.68C148.419 47.472 149.145 48.9013 150.595 49.968C152.046 50.992 154.073 51.504 156.675 51.504ZM194.124 54V7.125H197.968V28.3438C200.218 24.1979 204.031 22.125 209.406 22.125C213.551 22.125 216.781 23.3646 219.093 25.8438C221.426 28.3229 222.593 31.7917 222.593 36.25V54H218.749V37.0312C218.749 33.4271 217.843 30.625 216.031 28.625C214.218 26.6042 211.697 25.5938 208.468 25.5938C205.218 25.5938 202.656 26.6146 200.781 28.6562C198.906 30.6979 197.968 33.4896 197.968 37.0312V54H194.124Z" fill="black"/>
</g>
<path d="M10.9367 78.192C8.36066 78.192 6.47266 76.208 6.47266 73.76V73.728C6.47266 71.28 8.34466 69.264 10.9687 69.264C12.5847 69.264 13.5927 69.808 14.3927 70.704L12.9047 72.304C12.3607 71.728 11.8167 71.36 10.9527 71.36C9.73666 71.36 8.87266 72.432 8.87266 73.696V73.728C8.87266 75.04 9.72066 76.096 11.0487 76.096C11.8647 76.096 12.4247 75.744 13.0167 75.184L14.4407 76.624C13.6087 77.536 12.6487 78.192 10.9367 78.192ZM22.4189 78.192C19.8429 78.192 17.9389 76.384 17.9389 73.76V73.728C17.9389 71.28 19.6829 69.264 22.1789 69.264C25.0429 69.264 26.3549 71.488 26.3549 73.92C26.3549 74.112 26.3389 74.336 26.3229 74.56H20.3549C20.5949 75.664 21.3629 76.24 22.4509 76.24C23.2669 76.24 23.8589 75.984 24.5309 75.36L25.9229 76.592C25.1229 77.584 23.9709 78.192 22.4189 78.192ZM20.3229 73.04H23.9869C23.8429 71.952 23.2029 71.216 22.1789 71.216C21.1709 71.216 20.5149 71.936 20.3229 73.04ZM30.7274 78V69.424H33.1594V70.64C33.7194 69.92 34.4394 69.264 35.6714 69.264C37.5114 69.264 38.5834 70.48 38.5834 72.448V78H36.1514V73.216C36.1514 72.064 35.6074 71.472 34.6794 71.472C33.7514 71.472 33.1594 72.064 33.1594 73.216V78H30.7274ZM46.1522 78.144C44.6642 78.144 43.6562 77.552 43.6562 75.568V71.504H42.6322V69.424H43.6562V67.232H46.0882V69.424H48.1042V71.504H46.0882V75.168C46.0882 75.728 46.3282 76 46.8722 76C47.3202 76 47.7202 75.888 48.0722 75.696V77.648C47.5602 77.952 46.9682 78.144 46.1522 78.144ZM52.6108 78V69.306H55.3468V70.476C56.2828 69.72 57.6868 69.09 59.1448 69.09V71.592C58.9648 71.556 58.6768 71.538 58.1728 71.538C56.9668 71.538 55.8508 71.934 55.3468 72.438V78H52.6108ZM67.4867 78.192C64.9107 78.192 63.0067 76.384 63.0067 73.76V73.728C63.0067 71.28 64.7507 69.264 67.2467 69.264C70.1107 69.264 71.4227 71.488 71.4227 73.92C71.4227 74.112 71.4067 74.336 71.3907 74.56H65.4227C65.6627 75.664 66.4307 76.24 67.5187 76.24C68.3347 76.24 68.9267 75.984 69.5987 75.36L70.9907 76.592C70.1907 77.584 69.0387 78.192 67.4867 78.192ZM65.3907 73.04H69.0547C68.9107 71.952 68.2707 71.216 67.2467 71.216C66.2387 71.216 65.5827 71.936 65.3907 73.04ZM87.3601 78.192C84.7041 78.192 82.7361 76.224 82.7361 73.76V73.728C82.7361 71.264 84.7201 69.264 87.3921 69.264C90.0481 69.264 92.0161 71.232 92.0161 73.696V73.728C92.0161 76.192 90.0321 78.192 87.3601 78.192ZM87.3921 76.096C88.7841 76.096 89.6161 75.024 89.6161 73.76V73.728C89.6161 72.464 88.7041 71.36 87.3601 71.36C85.9681 71.36 85.1361 72.432 85.1361 73.696V73.728C85.1361 74.992 86.0481 76.096 87.3921 76.096ZM96.7531 78V71.504H95.7451V69.504H96.7531V68.96C96.7531 68.016 96.9931 67.328 97.4411 66.88C97.8891 66.432 98.5451 66.208 99.4091 66.208C100.177 66.208 100.689 66.304 101.137 66.448V68.464C100.785 68.336 100.449 68.256 100.033 68.256C99.4731 68.256 99.1531 68.544 99.1531 69.184V69.52H101.121V71.504H99.1851V78H96.7531ZM112.517 78V69.306H115.253V70.476C116.189 69.72 117.593 69.09 119.051 69.09V71.592C118.871 71.556 118.583 71.538 118.079 71.538C116.873 71.538 115.757 71.934 115.253 72.438V78H112.517ZM126.177 78.16C124.338 78.16 123.265 76.944 123.265 74.976V69.424H125.697V74.208C125.697 75.36 126.241 75.952 127.169 75.952C128.097 75.952 128.689 75.36 128.689 74.208V69.424H131.121V78H128.689V76.784C128.129 77.504 127.41 78.16 126.177 78.16ZM136.012 78V69.306H138.749V70.476C139.685 69.72 141.089 69.09 142.547 69.09V71.592C142.367 71.556 142.079 71.538 141.575 71.538C140.369 71.538 139.253 71.934 138.749 72.438V78H136.012ZM149.256 78.16C147.64 78.16 146.312 77.232 146.312 75.536V75.504C146.312 73.632 147.736 72.768 149.768 72.768C150.632 72.768 151.256 72.912 151.864 73.12V72.976C151.864 71.968 151.24 71.408 150.023 71.408C149.096 71.408 148.439 71.584 147.656 71.872L147.048 70.016C147.992 69.6 148.92 69.328 150.376 69.328C151.704 69.328 152.663 69.68 153.271 70.288C153.911 70.928 154.2 71.872 154.2 73.024V78H151.848V77.072C151.256 77.728 150.44 78.16 149.256 78.16ZM149.992 76.48C151.128 76.48 151.896 75.856 151.896 74.976V74.544C151.48 74.352 150.936 74.224 150.344 74.224C149.304 74.224 148.663 74.64 148.663 75.408V75.44C148.663 76.096 149.208 76.48 149.992 76.48ZM161.605 78.096C160.923 78.096 160.363 78.016 159.924 77.856C159.488 77.6853 159.163 77.3813 158.949 76.944C158.747 76.496 158.645 75.8507 158.645 75.008V66.8H161.109V74.64C161.109 75.1627 161.178 75.5307 161.316 75.744C161.466 75.9467 161.771 76.048 162.229 76.048C162.357 76.048 162.464 76.048 162.549 76.048C162.635 76.0373 162.719 76.0267 162.805 76.016V78.048C162.699 78.0587 162.581 78.064 162.452 78.064C162.335 78.0747 162.202 78.08 162.053 78.08C161.915 78.0907 161.765 78.096 161.605 78.096ZM176.561 78.16C174.945 78.16 173.617 77.232 173.617 75.536V75.504C173.617 73.632 175.041 72.768 177.073 72.768C177.937 72.768 178.561 72.912 179.169 73.12V72.976C179.169 71.968 178.545 71.408 177.329 71.408C176.401 71.408 175.745 71.584 174.961 71.872L174.353 70.016C175.297 69.6 176.225 69.328 177.68 69.328C179.008 69.328 179.969 69.68 180.577 70.288C181.217 70.928 181.505 71.872 181.505 73.024V78H179.152V77.072C178.561 77.728 177.745 78.16 176.561 78.16ZM177.297 76.48C178.433 76.48 179.201 75.856 179.201 74.976V74.544C178.785 74.352 178.24 74.224 177.648 74.224C176.609 74.224 175.969 74.64 175.969 75.408V75.44C175.969 76.096 176.513 76.48 177.297 76.48ZM188.874 81.8438C187.656 81.8438 186.723 81.6302 186.077 81.2031C185.436 80.7812 185.117 80.1875 185.117 79.4219C185.117 78.8958 185.281 78.4557 185.609 78.1016C185.937 77.7474 186.419 77.4948 187.055 77.3438C186.81 77.2396 186.596 77.0703 186.413 76.8359C186.231 76.5964 186.141 76.3438 186.141 76.0781C186.141 75.7448 186.237 75.4688 186.43 75.25C186.622 75.026 186.9 74.8073 187.266 74.5938C186.807 74.3958 186.443 74.0781 186.172 73.6406C185.906 73.2031 185.773 72.6875 185.773 72.0938C185.773 71.4583 185.911 70.9193 186.187 70.4766C186.469 70.0286 186.874 69.6875 187.406 69.4531C187.943 69.2188 188.594 69.1016 189.359 69.1016C189.521 69.1016 189.708 69.112 189.922 69.1328C190.135 69.1536 190.331 69.1771 190.508 69.2031C190.69 69.2292 190.811 69.25 190.874 69.2656H193.922V70.4766L192.555 70.8281C192.68 71.0208 192.773 71.2266 192.836 71.4453C192.898 71.6641 192.93 71.8958 192.93 72.1406C192.93 73.0781 192.601 73.8099 191.945 74.3359C191.294 74.8568 190.388 75.1172 189.226 75.1172C188.95 75.1016 188.689 75.0807 188.445 75.0547C188.325 75.1484 188.234 75.2474 188.172 75.3516C188.109 75.4557 188.077 75.5651 188.077 75.6797C188.077 75.7943 188.125 75.8906 188.219 75.9688C188.318 76.0417 188.463 76.099 188.656 76.1406C188.854 76.1771 189.098 76.1953 189.391 76.1953H190.874C191.832 76.1953 192.562 76.401 193.062 76.8125C193.568 77.224 193.82 77.8281 193.82 78.625C193.82 79.6458 193.393 80.4375 192.538 81C191.689 81.5625 190.468 81.8438 188.874 81.8438ZM188.976 80.2891C189.544 80.2891 190.031 80.2344 190.437 80.125C190.849 80.0208 191.164 79.8698 191.383 79.6719C191.601 79.4792 191.711 79.2474 191.711 78.9766C191.711 78.7578 191.646 78.5833 191.516 78.4531C191.391 78.3281 191.198 78.2396 190.937 78.1875C190.682 78.1354 190.354 78.1094 189.952 78.1094H188.719C188.426 78.1094 188.163 78.1562 187.93 78.25C187.7 78.3438 187.518 78.474 187.383 78.6406C187.247 78.8125 187.18 79.0104 187.18 79.2344C187.18 79.5625 187.336 79.8203 187.648 80.0078C187.965 80.1953 188.409 80.2891 188.976 80.2891ZM189.359 73.6641C189.807 73.6641 190.135 73.526 190.344 73.25C190.551 72.974 190.656 72.599 190.656 72.125C190.656 71.599 190.546 71.2057 190.327 70.9453C190.113 70.6797 189.792 70.5469 189.359 70.5469C188.922 70.5469 188.593 70.6797 188.374 70.9453C188.156 71.2057 188.047 71.599 188.047 72.125C188.047 72.599 188.154 72.974 188.367 73.25C188.585 73.526 188.917 73.6641 189.359 73.6641ZM197.812 68.48V66.32H200.372V68.48H197.812ZM197.877 78V69.424H200.309V78H197.877ZM205.152 78V69.424H207.585V70.64C208.145 69.92 208.865 69.264 210.096 69.264C211.936 69.264 213.008 70.48 213.008 72.448V78H210.577V73.216C210.577 72.064 210.033 71.472 209.105 71.472C208.177 71.472 207.585 72.064 207.585 73.216V78H205.152ZM220.398 81.8438C219.18 81.8438 218.247 81.6302 217.602 81.2031C216.96 80.7812 216.641 80.1875 216.641 79.4219C216.641 78.8958 216.805 78.4557 217.133 78.1016C217.461 77.7474 217.943 77.4948 218.577 77.3438C218.333 77.2396 218.12 77.0703 217.938 76.8359C217.755 76.5964 217.663 76.3438 217.663 76.0781C217.663 75.7448 217.76 75.4688 217.952 75.25C218.145 75.026 218.424 74.8073 218.788 74.5938C218.331 74.3958 217.966 74.0781 217.696 73.6406C217.43 73.2031 217.297 72.6875 217.297 72.0938C217.297 71.4583 217.435 70.9193 217.711 70.4766C217.992 70.0286 218.398 69.6875 218.93 69.4531C219.465 69.2188 220.117 69.1016 220.883 69.1016C221.044 69.1016 221.232 69.112 221.446 69.1328C221.659 69.1536 221.854 69.1771 222.031 69.2031C222.214 69.2292 222.335 69.25 222.398 69.2656H225.446V70.4766L224.077 70.8281C224.202 71.0208 224.296 71.2266 224.359 71.4453C224.421 71.6641 224.452 71.8958 224.452 72.1406C224.452 73.0781 224.125 73.8099 223.469 74.3359C222.818 74.8568 221.911 75.1172 220.749 75.1172C220.473 75.1016 220.214 75.0807 219.969 75.0547C219.849 75.1484 219.758 75.2474 219.696 75.3516C219.633 75.4557 219.602 75.5651 219.602 75.6797C219.602 75.7943 219.648 75.8906 219.742 75.9688C219.84 76.0417 219.987 76.099 220.18 76.1406C220.378 76.1771 220.622 76.1953 220.913 76.1953H222.398C223.356 76.1953 224.086 76.401 224.586 76.8125C225.091 77.224 225.344 77.8281 225.344 78.625C225.344 79.6458 224.917 80.4375 224.062 81C223.214 81.5625 221.992 81.8438 220.398 81.8438ZM220.499 80.2891C221.067 80.2891 221.555 80.2344 221.961 80.125C222.373 80.0208 222.688 79.8698 222.906 79.6719C223.124 79.4792 223.234 79.2474 223.234 78.9766C223.234 78.7578 223.169 78.5833 223.038 78.4531C222.913 78.3281 222.722 78.2396 222.461 78.1875C222.206 78.1354 221.878 78.1094 221.477 78.1094H220.242C219.951 78.1094 219.688 78.1562 219.452 78.25C219.223 78.3438 219.042 78.474 218.906 78.6406C218.771 78.8125 218.702 79.0104 218.702 79.2344C218.702 79.5625 218.86 79.8203 219.172 80.0078C219.49 80.1953 219.932 80.2891 220.499 80.2891ZM220.883 73.6641C221.331 73.6641 221.659 73.526 221.867 73.25C222.076 72.974 222.18 72.599 222.18 72.125C222.18 71.599 222.07 71.2057 221.852 70.9453C221.637 70.6797 221.315 70.5469 220.883 70.5469C220.446 70.5469 220.117 70.6797 219.898 70.9453C219.68 71.2057 219.571 71.599 219.571 72.125C219.571 72.599 219.676 72.974 219.891 73.25C220.109 73.526 220.44 73.6641 220.883 73.6641ZM83.3424 94.224L82.0464 92.912C81.1344 93.664 80.0624 94.16 78.7664 94.16C76.6224 94.16 75.0064 92.912 75.0064 90.928V90.896C75.0064 89.472 75.7744 88.464 77.1824 87.824C76.6384 87.056 76.3984 86.352 76.3984 85.584V85.552C76.3984 84.016 77.6304 82.608 79.7904 82.608C81.6944 82.608 82.9424 83.856 82.9424 85.424V85.456C82.9424 86.96 81.9824 87.84 80.5904 88.384L82.0784 89.872C82.4464 89.296 82.8144 88.64 83.1664 87.952L84.9744 88.944C84.5424 89.728 84.0624 90.56 83.5024 91.312L85.1504 92.96L83.3424 94.224ZM79.3104 87.088C80.2864 86.72 80.7984 86.304 80.7984 85.6V85.568C80.7984 84.928 80.3664 84.528 79.7424 84.528C79.0864 84.528 78.6544 84.992 78.6544 85.664V85.696C78.6544 86.192 78.8464 86.56 79.3104 87.088ZM79.0544 92.144C79.6144 92.144 80.1584 91.904 80.6704 91.504L78.5264 89.328C77.7904 89.712 77.4864 90.256 77.4864 90.8V90.832C77.4864 91.616 78.1424 92.144 79.0544 92.144ZM96.6079 94V82.32H99.0399V86.64C99.5999 85.92 100.319 85.264 101.551 85.264C103.391 85.264 104.463 86.48 104.463 88.448V94H102.031V89.216C102.031 88.064 101.487 87.472 100.559 87.472C99.6319 87.472 99.0399 88.064 99.0399 89.216V94H96.6079ZM113.2 94.192C110.624 94.192 108.72 92.384 108.72 89.76V89.728C108.72 87.28 110.464 85.264 112.96 85.264C115.824 85.264 117.136 87.488 117.136 89.92C117.136 90.112 117.12 90.336 117.104 90.56H111.136C111.376 91.664 112.145 92.24 113.232 92.24C114.049 92.24 114.64 91.984 115.312 91.36L116.704 92.592C115.904 93.584 114.752 94.192 113.2 94.192ZM111.104 89.04H114.768C114.624 87.952 113.984 87.216 112.96 87.216C111.952 87.216 111.296 87.936 111.104 89.04ZM123.941 94.16C122.326 94.16 120.997 93.232 120.997 91.536V91.504C120.997 89.632 122.422 88.768 124.453 88.768C125.317 88.768 125.941 88.912 126.549 89.12V88.976C126.549 87.968 125.925 87.408 124.709 87.408C123.781 87.408 123.125 87.584 122.341 87.872L121.733 86.016C122.677 85.6 123.605 85.328 125.061 85.328C126.389 85.328 127.349 85.68 127.957 86.288C128.597 86.928 128.885 87.872 128.885 89.024V94H126.533V93.072C125.941 93.728 125.125 94.16 123.941 94.16ZM124.677 92.48C125.813 92.48 126.581 91.856 126.581 90.976V90.544C126.165 90.352 125.621 90.224 125.029 90.224C123.989 90.224 123.349 90.64 123.349 91.408V91.44C123.349 92.096 123.894 92.48 124.677 92.48ZM136.29 94.096C135.607 94.096 135.048 94.016 134.609 93.856C134.173 93.6853 133.847 93.3813 133.633 92.944C133.431 92.496 133.329 91.8507 133.329 91.008V82.8H135.794V90.64C135.794 91.1627 135.864 91.5307 136.002 91.744C136.152 91.9467 136.456 92.048 136.913 92.048C137.042 92.048 137.148 92.048 137.234 92.048C137.32 92.0373 137.404 92.0267 137.49 92.016V94.048C137.383 94.0587 137.266 94.064 137.137 94.064C137.02 94.0747 136.887 94.08 136.738 94.08C136.6 94.0907 136.45 94.096 136.29 94.096ZM144.354 94.144C142.865 94.144 141.857 93.552 141.857 91.568V87.504H140.833V85.424H141.857V83.232H144.29V85.424H146.305V87.504H144.29V91.168C144.29 91.728 144.529 92 145.074 92C145.521 92 145.921 91.888 146.273 91.696V93.648C145.762 93.952 145.169 94.144 144.354 94.144ZM150.658 94V82.32H153.09V86.64C153.65 85.92 154.37 85.264 155.602 85.264C157.441 85.264 158.514 86.48 158.514 88.448V94H156.081V89.216C156.081 88.064 155.537 87.472 154.609 87.472C153.682 87.472 153.09 88.064 153.09 89.216V94H150.658Z" fill="#2C2B2B"/>
<defs>
<filter id="filter0_d_839_1450" x="5.07031" y="7.125" width="221.523" height="55.643" filterUnits="userSpaceOnUse" color-interpolation-filters="sRGB">
<feFlood flood-opacity="0" result="BackgroundImageFix"/>
<feColorMatrix in="SourceAlpha" type="matrix" values="0 0 0 0 0 0 0 0 0 0 0 0 0 0 0 0 0 0 127 0" result="hardAlpha"/>
<feOffset dy="4"/>
<feGaussianBlur stdDeviation="2"/>
<feComposite in2="hardAlpha" operator="out"/>
<feColorMatrix type="matrix" values="0 0 0 0 0 0 0 0 0 0 0 0 0 0 0 0 0 0 0.25 0"/>
<feBlend mode="normal" in2="BackgroundImageFix" result="effect1_dropShadow_839_1450"/>
<feBlend mode="normal" in="SourceGraphic" in2="effect1_dropShadow_839_1450" result="shape"/>
</filter>
</defs>
</svg>
