<svg width="32" height="32" viewBox="0 0 32 32" fill="none" xmlns="http://www.w3.org/2000/svg">
<path fill-rule="evenodd" clip-rule="evenodd" d="M16.0018 3.98157C21.4233 3.98157 25.8082 8.36646 25.8082 13.788C25.8082 21.1429 16.0018 32 16.0018 32C16.0018 32 6.19531 21.1429 6.19531 13.788C6.19531 8.36646 10.5802 3.98157 16.0018 3.98157ZM8.99805 13.7876C8.99805 17.7802 13.0887 23.8882 16.0027 27.6287C18.9726 23.8602 23.0073 17.8222 23.0073 13.7876C23.0073 9.92105 19.8692 6.78298 16.0027 6.78298C12.1361 6.78298 8.99805 9.92105 8.99805 13.7876ZM16.0023 17.2899C14.068 17.2899 12.5 15.7218 12.5 13.7876C12.5 11.8533 14.068 10.2852 16.0023 10.2852C17.9366 10.2852 19.5046 11.8533 19.5046 13.7876C19.5046 15.7218 17.9366 17.2899 16.0023 17.2899Z" fill="#212529"/>
</svg>
