<svg width="118" height="28" viewBox="0 0 118 28" fill="none" xmlns="http://www.w3.org/2000/svg">
<path d="M22.4657 0.0960054C25.0897 0.0960054 27.1377 0.864006 28.6097 2.40001C30.1137 3.90401 30.8657 6.00001 30.8657 8.68801C30.8657 9.58401 30.7697 10.544 30.5777 11.568L27.7937 27.264H18.3857L20.9297 12.816C21.0257 12.336 21.0737 11.904 21.0737 11.52C21.0737 10.368 20.7377 9.47201 20.0657 8.83201C19.4257 8.19201 18.5137 7.87201 17.3297 7.87201C15.9857 7.87201 14.8497 8.28801 13.9217 9.12001C12.9937 9.95201 12.3697 11.104 12.0497 12.576L9.45772 27.264H0.00171877L4.80172 0.336005H14.2097L13.5377 4.17601C14.5937 2.96001 15.8897 1.984 17.4257 1.248C18.9617 0.480005 20.6417 0.0960054 22.4657 0.0960054ZM44.668 27.6C42.428 27.6 40.428 27.264 38.668 26.592C36.908 25.92 35.532 24.976 34.54 23.76C33.548 22.512 33.052 21.088 33.052 19.488C33.052 19.2 33.084 18.768 33.148 18.192H42.22C42.188 19.088 42.46 19.776 43.036 20.256C43.612 20.736 44.412 20.976 45.436 20.976C46.236 20.976 46.892 20.816 47.404 20.496C47.948 20.176 48.22 19.76 48.22 19.248C48.22 18.64 47.884 18.176 47.212 17.856C46.54 17.504 45.42 17.072 43.852 16.56C42.028 15.984 40.524 15.424 39.34 14.88C38.156 14.336 37.116 13.536 36.22 12.48C35.356 11.424 34.924 10.064 34.924 8.40001C34.924 6.80001 35.388 5.36001 36.316 4.08001C37.276 2.80001 38.62 1.80801 40.348 1.10401C42.076 0.368007 44.076 6.67572e-06 46.348 6.67572e-06C48.78 6.67572e-06 50.876 0.416006 52.636 1.248C54.428 2.04801 55.756 3.16801 56.62 4.60801C57.516 6.04801 57.916 7.64801 57.82 9.40801H49.372C49.404 8.54401 49.148 7.87201 48.604 7.39201C48.06 6.88001 47.276 6.62401 46.252 6.62401C45.516 6.62401 44.908 6.78401 44.428 7.10401C43.948 7.42401 43.708 7.84001 43.708 8.35201C43.708 8.96001 44.044 9.44001 44.716 9.79201C45.42 10.144 46.588 10.592 48.22 11.136C50.012 11.712 51.5 12.288 52.684 12.864C53.9 13.408 54.94 14.192 55.804 15.216C56.668 16.208 57.1 17.488 57.1 19.056C57.1 21.712 55.948 23.808 53.644 25.344C51.34 26.848 48.348 27.6 44.668 27.6ZM61.0532 13.776C61.5652 10.96 62.5732 8.52801 64.0772 6.48001C65.6132 4.40001 67.5012 2.80001 69.7412 1.68001C72.0132 0.560006 74.4772 6.67572e-06 77.1332 6.67572e-06C80.5572 6.67572e-06 83.2772 0.944007 85.2932 2.83201C87.3092 4.68801 88.3652 7.29601 88.4612 10.656H78.4292C78.1732 8.89601 77.1972 8.01601 75.5012 8.01601C74.3172 8.01601 73.2932 8.51201 72.4292 9.50401C71.5652 10.464 70.9732 11.888 70.6532 13.776C70.5252 14.416 70.4612 15.056 70.4612 15.696C70.4612 16.976 70.7332 17.952 71.2772 18.624C71.8212 19.264 72.5572 19.584 73.4852 19.584C75.2132 19.584 76.4772 18.704 77.2772 16.944H87.3092C86.0612 20.272 84.0932 22.88 81.4052 24.768C78.7492 26.656 75.6932 27.6 72.2372 27.6C68.7172 27.6 65.9172 26.64 63.8372 24.72C61.7892 22.8 60.7652 20.16 60.7652 16.8C60.7652 15.84 60.8612 14.832 61.0532 13.776ZM90.2095 13.776C90.7215 10.96 91.7295 8.52801 93.2335 6.48001C94.7695 4.40001 96.6575 2.80001 98.8975 1.68001C101.169 0.560006 103.633 6.67572e-06 106.289 6.67572e-06C109.713 6.67572e-06 112.433 0.944007 114.449 2.83201C116.465 4.68801 117.521 7.29601 117.617 10.656H107.585C107.329 8.89601 106.353 8.01601 104.657 8.01601C103.473 8.01601 102.449 8.51201 101.585 9.50401C100.721 10.464 100.129 11.888 99.8095 13.776C99.6815 14.416 99.6175 15.056 99.6175 15.696C99.6175 16.976 99.8895 17.952 100.433 18.624C100.977 19.264 101.713 19.584 102.641 19.584C104.369 19.584 105.633 18.704 106.433 16.944H116.465C115.217 20.272 113.249 22.88 110.561 24.768C107.905 26.656 104.849 27.6 101.393 27.6C97.8735 27.6 95.0735 26.64 92.9935 24.72C90.9455 22.8 89.9215 20.16 89.9215 16.8C89.9215 15.84 90.0175 14.832 90.2095 13.776Z" fill="#004780"/>
</svg>
